<?xml version="1.0" ?><!DOCTYPE svg  PUBLIC '-//W3C//DTD SVG 1.1//EN'  'http://www.w3.org/Graphics/SVG/1.1/DTD/svg11.dtd'><svg height="100mm" style="shape-rendering:geometricPrecision; text-rendering:geometricPrecision; image-rendering:optimizeQuality; fill-rule:evenodd; clip-rule:evenodd" viewBox="0 0 100 100" width="100mm" xml:space="preserve" xmlns="http://www.w3.org/2000/svg" xmlns:xlink="http://www.w3.org/1999/xlink"><defs><style type="text/css">
   <![CDATA[
    .fil0 {fill:#008DD2}
   ]]>
  </style></defs><g id="Ebene_x0020_1"><path class="fil0" d="M19.0643 80.9358c-17.0852,-17.0854 -17.0852,-44.786 0.0001,-61.8715 17.0854,-17.0851 44.786,-17.0851 61.8714,0 17.0852,17.0854 17.0851,44.786 -0.0001,61.8713 -17.0855,17.0853 -44.786,17.0854 -61.8714,0.0002zm2.2094 -2.2097c-15.8649,-15.8649 -15.8648,-41.5873 0.0003,-57.4523 15.8648,-15.865 41.5872,-15.865 57.452,0 15.8651,15.865 15.8651,41.5873 0.0001,57.4522 -15.8649,15.865 -41.5874,15.8652 -57.4524,0.0001zm47.4763 -40.6519c-1.3787,0.6284 -2.8621,1.0525 -4.4188,1.2422 1.5892,-0.9757 2.8079,-2.5213 3.3828,-4.3653 -1.4866,0.9049 -3.1325,1.5613 -4.8855,1.9157 -1.4028,-1.533 -3.4026,-2.4919 -5.6154,-2.4919 -4.2482,0 -7.6929,3.5321 -7.6929,7.8894 0,0.6174 0.0676,1.2193 0.1994,1.7975 -6.3942,-0.3295 -12.0636,-3.4698 -15.8584,-8.243 -0.6623,1.1648 -1.0415,2.5198 -1.0415,3.9669 0,2.7367 1.358,5.1518 3.4225,6.5664 -1.2607,-0.0413 -2.4472,-0.3965 -3.4849,-0.9874 -0.0009,0.0327 -0.0009,0.0664 -0.0009,0.1 0,3.8218 2.6521,7.0099 6.1718,7.7357 -0.6456,0.1796 -1.3252,0.2764 -2.0271,0.2764 -0.4963,0 -0.9782,-0.0493 -1.4478,-0.1422 0.9797,3.1341 3.8204,5.4158 7.1865,5.4789 -2.633,2.1162 -5.9496,3.3778 -9.5545,3.3778 -0.6203,0 -1.2331,-0.0375 -1.8353,-0.1109 3.4055,2.2395 7.4492,3.5447 11.7935,3.5447 14.1518,0 21.8895,-12.0212 21.8895,-22.4469 0,-0.3419 -0.0069,-0.683 -0.0212,-1.0216 1.5026,-1.1096 2.8073,-2.5001 3.8382,-4.0824z"/></g></svg>