<?xml version="1.0" ?><!DOCTYPE svg  PUBLIC '-//W3C//DTD SVG 1.1//EN'  'http://www.w3.org/Graphics/SVG/1.1/DTD/svg11.dtd'><svg height="100mm" style="shape-rendering:geometricPrecision; text-rendering:geometricPrecision; image-rendering:optimizeQuality; fill-rule:evenodd; clip-rule:evenodd" viewBox="0 0 100 100" width="100mm" xml:space="preserve" xmlns="http://www.w3.org/2000/svg" xmlns:xlink="http://www.w3.org/1999/xlink"><defs><style type="text/css">
   <![CDATA[
    .fil0 {fill:#008DD2}
   ]]>
  </style></defs><g id="Ebene_x0020_1"><path class="fil0" d="M19.0643 80.9358c-17.0852,-17.0854 -17.0852,-44.786 0.0001,-61.8715 17.0854,-17.0851 44.786,-17.0851 61.8714,0 17.0852,17.0854 17.0851,44.786 -0.0001,61.8713 -17.0855,17.0853 -44.786,17.0854 -61.8714,0.0002zm2.2094 -2.2097c-15.8649,-15.8649 -15.8648,-41.5873 0.0003,-57.4523 15.8648,-15.865 41.5872,-15.865 57.452,0 15.8651,15.865 15.8651,41.5873 0.0001,57.4522 -15.8649,15.865 -41.5874,15.8652 -57.4524,0.0001zm17.7791 -9.9761l0.0096 -25.0001 -7.8029 0 -0.0096 25.0001 7.8029 0zm-3.9195 -29.6876c2.4214,0 3.9289,-1.7372 3.9289,-3.9064 -0.0449,-2.2178 -1.5075,-3.906 -3.8831,-3.906 -2.3761,0 -3.9292,1.6883 -3.9292,3.906 0,2.1692 1.5073,3.9064 3.8381,3.9064l0.0453 0zm8.6167 29.6876l7.8126 0 0 -14.1299c0,-0.7561 0.0523,-1.5124 0.2641,-2.0517 0.5799,-1.5116 2.6203,-3.077 4.8362,-3.077 2.9038,0 4.2745,2.3215 4.2745,5.722l0.0001 13.5367 7.8124 -0.0001 0 -14.5081c0,-7.7719 -3.9577,-11.3879 -9.2367,-11.3879 -4.3283,-0.0001 -6.9482,2.5362 -8.0038,4.263l0.0532 0 0.0098 -3.3671 -7.8126 0c0.1052,2.3739 -0.0098,25.0001 -0.0098,25.0001l0 0z"/></g></svg>