<?xml version="1.0" ?><!DOCTYPE svg  PUBLIC '-//W3C//DTD SVG 1.1//EN'  'http://www.w3.org/Graphics/SVG/1.1/DTD/svg11.dtd'><svg height="100mm" style="shape-rendering:geometricPrecision; text-rendering:geometricPrecision; image-rendering:optimizeQuality; fill-rule:evenodd; clip-rule:evenodd" viewBox="0 0 100 100" width="100mm" xml:space="preserve" xmlns="http://www.w3.org/2000/svg" xmlns:xlink="http://www.w3.org/1999/xlink"><defs><style type="text/css">
   <![CDATA[
    .fil0 {fill:#008DD2}
   ]]>
  </style></defs><g id="Ebene_x0020_1"><path class="fil0" d="M21.2737 78.7261c-15.8649,-15.8649 -15.8648,-41.5873 0.0003,-57.4523 15.8648,-15.865 41.5872,-15.865 57.452,0 15.8651,15.865 15.8651,41.5873 0.0001,57.4522 -15.8649,15.865 -41.5874,15.8652 -57.4524,0.0001zm-2.2094 2.2097c-17.0852,-17.0854 -17.0852,-44.786 0.0001,-61.8715 17.0854,-17.0851 44.786,-17.0851 61.8714,0 17.0852,17.0854 17.0851,44.786 -0.0001,61.8713 -17.0855,17.0853 -44.786,17.0854 -61.8714,0.0002zm30.9356 -52.8105c-47.6813,0 41.6653,0 0,0zm0.0896 43.7489c-0.7855,-0.0053 -1.5633,-0.0434 -2.3317,-0.1132 -1.8885,-0.1924 -3.7056,-0.6252 -5.4208,-1.267 0.7769,-0.1232 1.0427,-0.7484 1.0427,-1.3201 0,-0.6548 0.0138,-2.4832 0,-4.7848 -7.6647,1.6671 -9.2533,-3.629 -9.2533,-3.629 -1.2521,-3.1851 -3.0576,-4.0314 -3.0576,-4.0314 -2.5018,-1.7092 0.1876,-1.6775 0.1876,-1.6775 2.7651,0.1954 4.2228,2.8418 4.2228,2.8418 2.4583,4.2077 6.4486,2.9931 8.0178,2.2899 0.2515,-1.7816 0.965,-2.9966 1.7521,-3.6847 -6.119,-0.6964 -12.5525,-3.06 -12.5525,-13.6202 0,-3.0101 1.0733,-5.4691 2.8359,-7.3942 -0.2844,-0.6969 -1.2317,-3.4995 0.2704,-7.295 0,0 2.3134,-0.7403 7.5768,2.8271 2.1981,-0.6114 4.5569,-0.9161 6.8996,-0.9269 2.3415,0.0108 4.6988,0.3155 6.8994,0.9269 5.2625,-3.5659 7.5744,-2.8271 7.5744,-2.8271 1.5007,3.7955 0.5552,6.5981 0.2725,7.295 1.7629,1.9251 2.8334,4.3841 2.8334,7.3942 0,10.5885 -6.4438,12.917 -12.5849,13.5968 0.9894,0.8531 1.888,2.5067 1.888,5.0774 0,3.4458 0,6.7231 0,7.628 0,0.4862 0.1934,1.0067 0.7268,1.2278 -2.4209,0.9368 -5.0502,1.4552 -7.7994,1.4662z"/></g></svg>